mtllib ./Plane.mtl
o UModeler Object
v 100 0.025 100
v -100 0.025 100
v -100 0.025 -100
v 100 0.025 -100
v 100 -0.025 100
v -100 -0.025 100
v -100 -0.025 -100
v 100 -0.025 -100

vn 0 1 0
vn 0 0 1
vn -1 0 0
vn 0 0 -1
vn 1 0 0
vn 0 -1 0

vt -100 100
vt 100 100
vt 100 -100
vt -100 -100
vt 100 -0.02499998
vt -100 -0.02499998
vt -100 0.02500001
vt 100 0.02500001

usemtl Prototype_512x512_Pink
s off
f 3/3/1 2/2/1 1/1/1
f 4/4/1 3/3/1 1/1/1
f 2/7/2 6/6/2 5/5/2
f 1/8/2 2/7/2 5/5/2
f 3/7/3 7/6/3 6/5/3
f 2/8/3 3/7/3 6/5/3
f 4/7/4 8/6/4 7/5/4
f 3/8/4 4/7/4 7/5/4
f 1/7/5 5/6/5 8/5/5
f 4/8/5 1/7/5 8/5/5
f 7/1/6 8/2/6 5/3/6
f 6/4/6 7/1/6 5/3/6

