mtllib ./UModelerObject.mtl
o UModeler Object
v 0.0654217 0.8753991 -0.6320329
v 0.0654217 0.8753991 0.6179671
v -0.0595783 0.8753991 0.6179671
v -0.0595783 0.8753991 -0.6320329
v 0.0654217 -0.7496008 -0.6320329
v 0.0654217 -0.7496008 -0.5070329
v 0.0654217 0.7503992 -0.5070329
v 0.0654217 0.7503992 -0.6320329
v 0.0654217 -0.7496008 0.4929671
v 0.0654217 0.7503992 0.4929671
v 0.0654217 -0.7496008 0.6179671
v 0.0654217 0.7503992 0.6179671
v -0.0283283 -0.7496008 -0.5070329
v -0.0283283 -0.7496008 0.4929671
v -0.0595783 -0.7496008 0.6179671
v -0.0595783 -0.7496008 -0.6320329
v -0.0283283 0.7503992 0.4929671
v -0.0283283 0.7503992 -0.5070329
v -0.0595783 0.7503992 -0.6320329
v -0.0595783 0.7503992 0.6179671
v -0.0283283 0.0003991723 0.3679671
v -0.0283283 -0.03085083 0.3679671
v -0.0908283 -0.03085083 0.3679671
v -0.0908283 0.0003991723 0.3679671
v -0.0283283 -0.03085083 0.1492171
v -0.0283283 0.0003991723 0.1492171
v -0.0908283 0.0003991723 0.1492171
v -0.0908283 -0.03085083 0.1492171
v -0.0283283 -0.03085083 0.3367171
v -0.0283283 0.0003991723 0.3367171
v -0.0595783 0.0003991723 0.3367171
v -0.0595783 -0.03085083 0.3367171
v -0.0595783 0.0003991723 0.1804671
v -0.0595783 -0.03085083 0.1804671
v -0.0908283 -0.03085083 0.3367171
v -0.0283283 -0.03085083 0.1804671
v -0.0908283 -0.03085083 0.1804671
v -0.0908283 0.0003991723 0.3367171
v -0.0908283 0.0003991723 0.1804671
v -0.0283283 0.0003991723 0.1804671

vn 0 1 0
vn 1 0 0
vn 0 -1 0
vn 0 0 1
vn 0 0 -1
vn -1 0 0
vn -0.9701425 0 -0.2425356
vn -0.9701425 0 0.2425356

vt -0.0654217 -0.6320329
vt -0.0654217 0.6179671
vt 0.0595783 0.6179671
vt 0.0595783 -0.6320329
vt 0.1197241 0.5112853
vt 0.0850583 0.5112886
vt 0.0850583 0.9273119
vt 0.1197241 0.9273086
vt 0.7598213 0.002273798
vt 0.1938064 0.002292216
vt 0.1938064 1.006213
vt 0.7598213 1.006195
vt 0.9106634 0.2757059
vt 0.8609177 0.2757025
vt 0.8609101 0.8727179
vt 0.9106634 0.8727213
vt 0.741206 0.997193
vt 0.7421153 0.002164602
vt 0.7172397 0.002073824
vt 0.7163304 0.9971023
vt 0.0654217 -0.4929671
vt 0.0654217 0.5070329
vt -0.0283283 0.5070329
vt -0.0283283 -0.4929671
vt -0.0595783 -0.6179671
vt 0.0654217 -0.6179671
vt -0.0595783 0.6320329
vt 0.0654217 0.6320329
vt -0.0283283 0.0003991723
vt -0.0283283 -0.03085083
vt -0.0908283 -0.03085083
vt -0.0908283 0.0003991723
vt 0.0283283 -0.03085083
vt 0.0283283 0.0003991723
vt 0.0908283 0.0003991723
vt 0.0908283 -0.03085083
vt 0.0595783 0.0003991723
vt 0.0595783 -0.03085083
vt -0.1804671 0.0003991723
vt -0.1804671 -0.03085083
vt -0.3367171 -0.03085083
vt -0.3367171 0.0003991723
vt -0.0283283 -0.3679671
vt -0.0283283 -0.3367171
vt -0.0908283 -0.3367171
vt -0.0908283 -0.3679671
vt -0.0283283 -0.1804671
vt -0.0283283 -0.1492171
vt -0.0908283 -0.1492171
vt -0.0908283 -0.1804671
vt -0.0595783 -0.1804671
vt -0.0595783 -0.3367171
vt 0.3367171 0.0003991723
vt 0.3679671 0.0003991723
vt 0.3679671 -0.03085083
vt 0.3367171 -0.03085083
vt 0.1804671 0.0003991723
vt 0.1804671 -0.03085083
vt 0.1492171 -0.03085083
vt 0.1492171 0.0003991723
vt 0.0283283 0.3367171
vt 0.0283283 0.3679671
vt 0.0908283 0.3679671
vt 0.0908283 0.3367171
vt 0.0283283 0.1492171
vt 0.0283283 0.1804671
vt 0.0908283 0.1804671
vt 0.0908283 0.1492171
vt 0.0595783 0.1804671
vt 0.0595783 0.3367171
vt -0.0595783 -0.03085083
vt -0.0595783 0.0003991723
vt 0.6785653 0.4951401
vt 0.74845 0.01998472
vt 0.1893707 0.01998472
vt 0.6785653 0.5157991
vt 0.5737379 0.5157991
vt 0.661094 0.5157991
vt 0.5737379 0.4951401
vt 0.74845 1.011614
vt 0.5562667 0.5157991
vt 0.661094 0.4951401
vt 0.5562667 0.4951401
vt 0.1893707 1.011614
vt 0.2265735 0.5112853
vt 0.1908406 0.5112805
vt 0.1908406 0.9273057
vt 0.2265735 0.9273086
vt 0.190125 0.5112805
vt 0.1543921 0.5112853
vt 0.1543921 0.9273086
vt 0.190125 0.9273057
vt 0.7147932 0.9968131
vt 0.7396691 0.996904
vt 0.7405767 0.001868337
vt 0.7157008 0.001777589
vt 0.9750745 0.3037763
vt 0.934259 0.3037763
vt 0.934259 0.9011778
vt 0.9750745 0.9011778
vt 0.1197241 0.9619765
vt 0.1543921 0.9619765
vt 0.1619402 0.7902858
vt 0.1259589 0.7902941
vt 0.1259589 0.9088815
vt 0.1619402 0.9088719
vt 0.9319887 0.9037746
vt 0.9817389 0.9031402
vt 0.9798405 0.3061334
vt 0.9300932 0.3067712

usemtl New_Material
s off
f 3/3/1 2/2/1 1/1/1
f 4/4/1 3/3/1 1/1/1
f 7/7/2 6/6/2 5/5/2
f 8/8/2 7/7/2 5/5/2
f 10/11/2 9/10/2 6/9/2
f 7/12/2 10/11/2 6/9/2
f 12/15/2 11/14/2 9/13/2
f 10/16/2 12/15/2 9/13/2
f 2/19/2 12/18/2 8/17/2
f 1/20/2 2/19/2 8/17/2
f 13/23/3 6/22/3 9/21/3
f 14/24/3 13/23/3 9/21/3
f 9/21/3 11/26/3 15/25/3
f 14/24/3 9/21/3 15/25/3
f 6/22/3 13/23/3 16/27/3
f 5/28/3 6/22/3 16/27/3
f 19/27/3 18/23/3 17/24/3
f 20/25/3 19/27/3 17/24/3
f 23/31/4 22/30/4 21/29/4
f 24/32/4 23/31/4 21/29/4
f 27/35/5 26/34/5 25/33/5
f 28/36/5 27/35/5 25/33/5
f 31/37/5 30/34/5 29/33/5
f 32/38/5 31/37/5 29/33/5
f 32/41/2 34/40/2 33/39/2
f 31/42/2 32/41/2 33/39/2
f 35/45/3 29/44/3 22/43/3
f 23/46/3 35/45/3 22/43/3
f 28/49/3 25/48/3 36/47/3
f 37/50/3 28/49/3 36/47/3
f 35/45/3 37/50/3 34/51/3
f 32/52/3 35/45/3 34/51/3
f 23/55/6 24/54/6 38/53/6
f 35/56/6 23/55/6 38/53/6
f 28/59/6 37/58/6 39/57/6
f 27/60/6 28/59/6 39/57/6
f 38/53/6 39/57/6 37/58/6
f 35/56/6 38/53/6 37/58/6
f 24/63/1 21/62/1 30/61/1
f 38/64/1 24/63/1 30/61/1
f 39/67/1 40/66/1 26/65/1
f 27/68/1 39/67/1 26/65/1
f 31/70/1 33/69/1 39/67/1
f 38/64/1 31/70/1 39/67/1
f 34/71/4 36/30/4 40/29/4
f 33/72/4 34/71/4 40/29/4
f 13/75/6 14/74/6 22/73/6
f 22/73/6 14/74/6 21/76/6
f 36/79/6 30/78/6 40/77/6
f 30/78/6 21/76/6 17/80/6
f 40/77/6 30/78/6 17/80/6
f 26/81/6 40/77/6 17/80/6
f 21/76/6 14/74/6 17/80/6
f 13/75/6 22/73/6 29/82/6
f 13/75/6 29/82/6 30/78/6
f 13/75/6 30/78/6 36/79/6
f 13/75/6 36/79/6 25/83/6
f 13/75/6 25/83/6 26/81/6
f 13/75/6 26/81/6 17/80/6
f 13/75/6 17/80/6 18/84/6
f 17/87/7 14/86/7 15/85/7
f 20/88/7 17/87/7 15/85/7
f 19/91/8 16/90/8 13/89/8
f 18/92/8 19/91/8 13/89/8
f 19/95/6 20/94/6 3/93/6
f 4/96/6 19/95/6 3/93/6
f 8/99/5 5/98/5 16/97/5
f 19/100/5 8/99/5 16/97/5
f 1/101/5 8/8/5 19/91/5
f 4/102/5 1/101/5 19/91/5
f 3/105/4 20/104/4 12/103/4
f 2/106/4 3/105/4 12/103/4
f 20/109/4 15/108/4 11/107/4
f 12/110/4 20/109/4 11/107/4

