mtllib ./WheelPlane.mtl
o UModeler Object
v 14.875 0 -81
v 14.875 0 -67.25
v 14.875 2 -67.25
v 14.875 2 -81
v 5.875 0 -81
v 5.875 0 -67.25
v 3.375 0.3499999 -69.65625
v 3.375 0.3499999 -67.25
v 3.375 0 -67.25
v 3.375 0.7 -72.0625
v 3.375 0.7 -69.65625
v 3.375 1.05 -74.46875
v 3.375 1.05 -72.0625
v 3.375 0 -81
v 3.375 1.4 -74.46875
v 3.375 1.4 -76.875
v 3.375 1.75 -76.875
v 3.375 1.75 -79.28125
v 3.375 2 -79.28125
v 3.375 2 -81
v 5.875 0.7 -69.65625
v 5.875 0.3499999 -67.25
v 5.875 0.3499999 -69.65625
v 5.875 2 -67.25
v 5.875 0.7 -72.0625
v 5.875 1.05 -72.0625
v 5.875 1.05 -74.46875
v 5.875 1.4 -74.46875
v 5.875 1.4 -76.875
v 5.875 1.75 -76.875
v 5.875 1.75 -79.28125
v 5.875 2 -79.28125
v 5.875 2 -81

vn 1 0 0
vn 0 -1 0
vn -1 0 0
vn 0 0 -1
vn 0 0 1
vn 0 1 0

vt 81 0
vt 67.25 0
vt 67.25 2
vt 81 2
vt 5.875 81
vt 5.875 67.25
vt 14.875 67.25
vt 14.875 81
vt -69.65625 0.3499999
vt -67.25 0.3499999
vt -67.25 0
vt -72.0625 0.7
vt -69.65625 0.7
vt -74.46875 1.05
vt -72.0625 1.05
vt -81 0
vt -74.46875 1.4
vt -76.875 1.4
vt -76.875 1.75
vt -79.28125 1.75
vt -79.28125 2
vt -81 2
vt -67.25 2
vt -5.875 0
vt -14.875 0
vt -14.875 2
vt -5.875 2
vt -3.375 0
vt -3.375 2
vt 14.875 0
vt 5.875 0
vt 5.875 2
vt 14.875 2
vt 3.375 0
vt 3.375 0.3499999
vt 5.875 0.3499999
vt -5.875 -81
vt -14.875 -81
vt -14.875 -67.25
vt -5.875 -67.25
vt -3.375 -79.28125
vt -3.375 -81
vt -5.875 -79.28125
vt -3.375 -67.25
vt -3.375 -69.65625
vt -5.875 -69.65625
vt 3.375 0.7
vt 5.875 0.7
vt -3.375 -72.0625
vt -5.875 -72.0625
vt 3.375 1.05
vt 5.875 1.05
vt -3.375 -74.46875
vt -5.875 -74.46875
vt 3.375 1.4
vt 5.875 1.4
vt -3.375 -76.875
vt -5.875 -76.875
vt 3.375 1.75
vt 5.875 1.75
vt 3.375 2
vt 3.375 67.25
vt 3.375 81

usemtl Prototype_512x512_Yellow
s off
f 3/3/1 2/2/1 1/1/1
f 4/4/1 3/3/1 1/1/1
f 2/7/2 6/6/2 5/5/2
f 1/8/2 2/7/2 5/5/2
f 9/11/3 8/10/3 7/9/3
f 7/9/3 11/13/3 10/12/3
f 10/12/3 13/15/3 12/14/3
f 12/14/3 15/17/3 14/16/3
f 10/12/3 12/14/3 14/16/3
f 7/9/3 10/12/3 14/16/3
f 9/11/3 7/9/3 14/16/3
f 14/16/3 15/17/3 16/18/3
f 14/16/3 16/18/3 17/19/3
f 14/16/3 17/19/3 18/20/3
f 14/16/3 18/20/3 19/21/3
f 14/16/3 19/21/3 20/22/3
f 23/9/3 22/10/3 21/13/3
f 21/13/3 22/10/3 24/23/3
f 21/13/3 24/23/3 25/12/3
f 25/12/3 24/23/3 26/15/3
f 26/15/3 24/23/3 27/14/3
f 27/14/3 24/23/3 28/17/3
f 28/17/3 24/23/3 29/18/3
f 29/18/3 24/23/3 30/19/3
f 30/19/3 24/23/3 31/20/3
f 31/20/3 24/23/3 32/21/3
f 4/26/4 1/25/4 5/24/4
f 33/27/4 4/26/4 5/24/4
f 33/27/4 5/24/4 14/28/4
f 20/29/4 33/27/4 14/28/4
f 24/32/5 6/31/5 2/30/5
f 3/33/5 24/32/5 2/30/5
f 22/36/5 8/35/5 9/34/5
f 6/31/5 22/36/5 9/34/5
f 3/39/6 4/38/6 33/37/6
f 24/40/6 3/39/6 33/37/6
f 33/37/6 20/42/6 19/41/6
f 32/43/6 33/37/6 19/41/6
f 23/46/6 7/45/6 8/44/6
f 22/40/6 23/46/6 8/44/6
f 21/48/5 11/47/5 7/35/5
f 23/36/5 21/48/5 7/35/5
f 25/50/6 10/49/6 11/45/6
f 21/46/6 25/50/6 11/45/6
f 26/52/5 13/51/5 10/47/5
f 25/48/5 26/52/5 10/47/5
f 27/54/6 12/53/6 13/49/6
f 26/50/6 27/54/6 13/49/6
f 28/56/5 15/55/5 12/51/5
f 27/52/5 28/56/5 12/51/5
f 29/58/6 16/57/6 15/53/6
f 28/54/6 29/58/6 15/53/6
f 30/60/5 17/59/5 16/55/5
f 29/56/5 30/60/5 16/55/5
f 31/43/6 18/41/6 17/57/6
f 30/58/6 31/43/6 17/57/6
f 32/32/5 19/61/5 18/59/5
f 31/60/5 32/32/5 18/59/5
f 5/5/2 6/6/2 9/62/2
f 14/63/2 5/5/2 9/62/2

