<svg width="63" height="65" viewBox="0 0 63 65" fill="none" xmlns="http://www.w3.org/2000/svg">
<path d="M30.4214 0C37.0626 13.1887 42.4546 20.5281 56.0705 33.4035H4.77222C16.5918 21.5084 22.2654 14.1934 30.4214 0Z" fill="#FAFAFA"/>
<path d="M30.4214 0C37.0626 13.1887 42.4546 20.5281 56.0705 33.4035H4.77222C16.5918 21.5084 22.2654 14.1934 30.4214 0Z" fill="#FAFAFA"/>
<path d="M30.4214 0C37.0626 13.1887 42.4546 20.5281 56.0705 33.4035H4.77222C16.5918 21.5084 22.2654 14.1934 30.4214 0Z" fill="#FAFAFA"/>
<path d="M30.4214 0C37.0626 13.1887 42.4546 20.5281 56.0705 33.4035H4.77222C16.5918 21.5084 22.2654 14.1934 30.4214 0Z" fill="#FAFAFA"/>
<path d="M30.4215 13.1211C39.8327 26.4796 46.0083 33.4962 58.8332 44.4369H2.00977C15.3266 32.898 21.5758 25.6857 30.4215 13.1211Z" fill="#FAFAFA"/>
<path d="M30.4215 13.1211C39.8327 26.4796 46.0083 33.4962 58.8332 44.4369H2.00977C15.3266 32.898 21.5758 25.6857 30.4215 13.1211Z" fill="#FAFAFA"/>
<path d="M30.4215 13.1211C39.8327 26.4796 46.0083 33.4962 58.8332 44.4369H2.00977C15.3266 32.898 21.5758 25.6857 30.4215 13.1211Z" fill="#FAFAFA"/>
<path d="M30.4215 13.1211C39.8327 26.4796 46.0083 33.4962 58.8332 44.4369H2.00977C15.3266 32.898 21.5758 25.6857 30.4215 13.1211Z" fill="#FAFAFA"/>
<path d="M31.0176 22.668C39.9762 36.7106 46.4176 44.1366 62.0351 56.0715H0C14.2841 43.5751 20.9981 36.3418 31.0176 22.668Z" fill="#FAFAFA"/>
<path d="M31.0176 22.668C39.9762 36.7106 46.4176 44.1366 62.0351 56.0715H0C14.2841 43.5751 20.9981 36.3418 31.0176 22.668Z" fill="#FAFAFA"/>
<path d="M31.0176 22.668C39.9762 36.7106 46.4176 44.1366 62.0351 56.0715H0C14.2841 43.5751 20.9981 36.3418 31.0176 22.668Z" fill="#FAFAFA"/>
<path d="M31.0176 22.668C39.9762 36.7106 46.4176 44.1366 62.0351 56.0715H0C14.2841 43.5751 20.9981 36.3418 31.0176 22.668Z" fill="#FAFAFA"/>
<rect x="25" y="56" width="11" height="9" fill="#FAFAFA"/>
</svg>
